# Blender v3.0.0 OBJ File: ''
# www.blender.org
mtllib circle_boundery.mtl
o Cylinder.001
v 0.000000 -0.100000 -1.100000
v 0.000000 -0.100000 -1.000000
v 0.000000 0.100000 -1.100000
v 0.000000 0.100000 -1.000000
v 0.214599 -0.100000 -1.078864
v 0.195090 -0.100000 -0.980785
v 0.214599 0.100000 -1.078864
v 0.195090 0.100000 -0.980785
v 0.420952 -0.100000 -1.016267
v 0.382683 -0.100000 -0.923880
v 0.420952 0.100000 -1.016267
v 0.382683 0.100000 -0.923880
v 0.611127 -0.100000 -0.914617
v 0.555570 -0.100000 -0.831470
v 0.611127 0.100000 -0.914617
v 0.555570 0.100000 -0.831470
v 0.777817 -0.100000 -0.777817
v 0.707107 -0.100000 -0.707107
v 0.777817 0.100000 -0.777817
v 0.707107 0.100000 -0.707107
v 0.914617 -0.100000 -0.611127
v 0.831470 -0.100000 -0.555570
v 0.914617 0.100000 -0.611127
v 0.831470 0.100000 -0.555570
v 0.923880 -0.100000 -0.382683
v 1.016267 -0.100000 -0.420952
v 1.016267 0.100000 -0.420952
v 0.923880 0.100000 -0.382683
v 0.980785 -0.100000 -0.195090
v 1.078864 -0.100000 -0.214599
v 0.980785 0.100000 -0.195090
v 1.078864 0.100000 -0.214599
v 1.000000 -0.100000 0.000000
v 1.100000 -0.100000 0.000000
v 1.000000 0.100000 0.000000
v 1.100000 0.100000 0.000000
v 0.980785 -0.100000 0.195090
v 1.078864 -0.100000 0.214599
v 1.078864 0.100000 0.214599
v 0.980785 0.100000 0.195090
v 1.016268 -0.100000 0.420952
v 0.923880 -0.100000 0.382683
v 0.923880 0.100000 0.382683
v 1.016268 0.100000 0.420952
v 0.914617 -0.100000 0.611127
v 0.831470 -0.100000 0.555570
v 0.914617 0.100000 0.611127
v 0.831470 0.100000 0.555570
v 0.777817 -0.100000 0.777817
v 0.707107 -0.100000 0.707107
v 0.707107 0.100000 0.707107
v 0.777817 0.100000 0.777817
v 0.555570 -0.100000 0.831470
v 0.611127 -0.100000 0.914617
v 0.555570 0.100000 0.831470
v 0.611127 0.100000 0.914617
v 0.382683 -0.100000 0.923880
v 0.420952 -0.100000 1.016267
v 0.382683 0.100000 0.923880
v 0.420952 0.100000 1.016267
v 0.214599 -0.100000 1.078864
v 0.195090 -0.100000 0.980785
v 0.214599 0.100000 1.078864
v 0.195090 0.100000 0.980785
v -0.000000 -0.100000 1.100000
v -0.000000 -0.100000 1.000000
v -0.000000 0.100000 1.100000
v -0.000000 0.100000 1.000000
v -0.214599 -0.100000 1.078864
v -0.195090 -0.100000 0.980785
v -0.195090 0.100000 0.980785
v -0.214599 0.100000 1.078864
v -0.382683 -0.100000 0.923880
v -0.420952 -0.100000 1.016267
v -0.382683 0.100000 0.923880
v -0.420952 0.100000 1.016267
v -0.555570 -0.100000 0.831470
v -0.611127 -0.100000 0.914617
v -0.555570 0.100000 0.831470
v -0.611127 0.100000 0.914617
v -0.777817 -0.100000 0.777818
v -0.707107 -0.100000 0.707107
v -0.707107 0.100000 0.707107
v -0.777817 0.100000 0.777818
v -0.914616 -0.100000 0.611127
v -0.831469 -0.100000 0.555570
v -0.831469 0.100000 0.555570
v -0.914616 0.100000 0.611127
v -1.016267 -0.100000 0.420952
v -0.923880 -0.100000 0.382684
v -1.016267 0.100000 0.420952
v -0.923880 0.100000 0.382684
v -1.078864 -0.100000 0.214599
v -0.980785 -0.100000 0.195090
v -1.078864 0.100000 0.214599
v -0.980785 0.100000 0.195090
v -1.100000 -0.100000 -0.000000
v -1.000000 -0.100000 -0.000000
v -1.100000 0.100000 -0.000000
v -1.000000 0.100000 -0.000000
v -0.980785 -0.100000 -0.195090
v -1.078864 -0.100000 -0.214599
v -1.078864 0.100000 -0.214599
v -0.980785 0.100000 -0.195090
v -1.016267 -0.100000 -0.420952
v -0.923879 -0.100000 -0.382684
v -0.923879 0.100000 -0.382684
v -1.016267 0.100000 -0.420952
v -0.914617 -0.100000 -0.611127
v -0.831470 -0.100000 -0.555570
v -0.831470 0.100000 -0.555570
v -0.914617 0.100000 -0.611127
v -0.707107 -0.100000 -0.707107
v -0.777818 -0.100000 -0.777817
v -0.707107 0.100000 -0.707107
v -0.777818 0.100000 -0.777817
v -0.611127 -0.100000 -0.914617
v -0.555570 -0.100000 -0.831470
v -0.555570 0.100000 -0.831470
v -0.611127 0.100000 -0.914617
v -0.420952 -0.100000 -1.016268
v -0.382683 -0.100000 -0.923880
v -0.382683 0.100000 -0.923880
v -0.420952 0.100000 -1.016268
v -0.195090 -0.100000 -0.980785
v -0.214599 -0.100000 -1.078864
v -0.214599 0.100000 -1.078864
v -0.195090 0.100000 -0.980785
vt 1.000000 0.500000
vt 1.000000 1.000000
vt 0.968750 1.000000
vt 0.968750 0.500000
vt 0.937500 1.000000
vt 0.937500 0.500000
vt 0.906250 1.000000
vt 0.906250 0.500000
vt 0.875000 1.000000
vt 0.875000 0.500000
vt 0.843750 1.000000
vt 0.843750 0.500000
vt 0.812500 1.000000
vt 0.812500 0.500000
vt 0.781250 1.000000
vt 0.781250 0.500000
vt 0.750000 1.000000
vt 0.750000 0.500000
vt 0.718750 1.000000
vt 0.718750 0.500000
vt 0.687500 1.000000
vt 0.687500 0.500000
vt 0.656250 1.000000
vt 0.656250 0.500000
vt 0.625000 1.000000
vt 0.625000 0.500000
vt 0.593750 1.000000
vt 0.593750 0.500000
vt 0.562500 1.000000
vt 0.562500 0.500000
vt 0.531250 1.000000
vt 0.531250 0.500000
vt 0.500000 1.000000
vt 0.500000 0.500000
vt 0.468750 1.000000
vt 0.468750 0.500000
vt 0.437500 1.000000
vt 0.437500 0.500000
vt 0.406250 1.000000
vt 0.406250 0.500000
vt 0.375000 1.000000
vt 0.375000 0.500000
vt 0.343750 1.000000
vt 0.343750 0.500000
vt 0.312500 1.000000
vt 0.312500 0.500000
vt 0.281250 1.000000
vt 0.281250 0.500000
vt 0.250000 1.000000
vt 0.250000 0.500000
vt 0.218750 1.000000
vt 0.218750 0.500000
vt 0.187500 1.000000
vt 0.187500 0.500000
vt 0.156250 1.000000
vt 0.156250 0.500000
vt 0.125000 1.000000
vt 0.125000 0.500000
vt 0.093750 1.000000
vt 0.093750 0.500000
vt 0.062500 1.000000
vt 0.062500 0.500000
vt 0.333495 0.451574
vt 0.341844 0.471731
vt 0.296822 0.485388
vt 0.250000 0.490000
vt 0.203178 0.485388
vt 0.158156 0.471731
vt 0.116663 0.449553
vt 0.080294 0.419706
vt 0.050447 0.383337
vt 0.028269 0.341844
vt 0.014612 0.296822
vt 0.010000 0.250000
vt 0.014612 0.203178
vt 0.028269 0.158156
vt 0.050447 0.116663
vt 0.080294 0.080294
vt 0.116663 0.050447
vt 0.158156 0.028269
vt 0.203178 0.014612
vt 0.250000 0.010000
vt 0.296822 0.014612
vt 0.341844 0.028269
vt 0.383337 0.050447
vt 0.419706 0.080294
vt 0.449553 0.116663
vt 0.471731 0.158156
vt 0.451574 0.166505
vt 0.431412 0.128785
vt 0.404278 0.095722
vt 0.371215 0.068588
vt 0.333495 0.048426
vt 0.292565 0.036010
vt 0.250000 0.031818
vt 0.207435 0.036010
vt 0.166505 0.048426
vt 0.128785 0.068588
vt 0.095722 0.095722
vt 0.068588 0.128785
vt 0.048426 0.166505
vt 0.036010 0.207435
vt 0.031818 0.250000
vt 0.036011 0.292565
vt 0.048426 0.333495
vt 0.068588 0.371215
vt 0.095722 0.404278
vt 0.128785 0.431411
vt 0.166505 0.451574
vt 0.207435 0.463989
vt 0.250000 0.468182
vt 0.292565 0.463989
vt 0.485388 0.203178
vt 0.490000 0.250000
vt 0.485388 0.296822
vt 0.471731 0.341844
vt 0.449553 0.383337
vt 0.419706 0.419706
vt 0.383337 0.449553
vt 0.371215 0.431412
vt 0.404278 0.404278
vt 0.431411 0.371215
vt 0.451574 0.333495
vt 0.463990 0.292565
vt 0.468182 0.250000
vt 0.463989 0.207435
vt 0.031250 1.000000
vt 0.031250 0.500000
vt 0.000000 1.000000
vt 0.000000 0.500000
vt 0.883337 0.449553
vt 0.919706 0.419706
vt 0.949553 0.383337
vt 0.971731 0.341844
vt 0.985388 0.296822
vt 0.990000 0.250000
vt 0.985388 0.203178
vt 0.971731 0.158156
vt 0.949553 0.116663
vt 0.919706 0.080294
vt 0.883337 0.050447
vt 0.841844 0.028269
vt 0.796822 0.014612
vt 0.750000 0.010000
vt 0.703178 0.014612
vt 0.658156 0.028269
vt 0.616663 0.050447
vt 0.580294 0.080294
vt 0.550447 0.116663
vt 0.528269 0.158156
vt 0.514612 0.203178
vt 0.510000 0.250000
vt 0.514612 0.296822
vt 0.528269 0.341844
vt 0.550447 0.383337
vt 0.568588 0.371215
vt 0.548426 0.333495
vt 0.536011 0.292565
vt 0.531818 0.250000
vt 0.536010 0.207435
vt 0.548426 0.166505
vt 0.568588 0.128785
vt 0.595722 0.095722
vt 0.628785 0.068588
vt 0.666505 0.048426
vt 0.707435 0.036010
vt 0.750000 0.031818
vt 0.792565 0.036010
vt 0.833495 0.048426
vt 0.871215 0.068588
vt 0.904278 0.095722
vt 0.931411 0.128785
vt 0.951573 0.166505
vt 0.963989 0.207435
vt 0.968182 0.250000
vt 0.963989 0.292565
vt 0.951573 0.333495
vt 0.931411 0.371215
vt 0.904278 0.404278
vt 0.871215 0.431411
vt 0.580294 0.419706
vt 0.616663 0.449553
vt 0.658156 0.471731
vt 0.703178 0.485388
vt 0.750000 0.490000
vt 0.796822 0.485388
vt 0.841844 0.471731
vt 0.833495 0.451574
vt 0.792565 0.463989
vt 0.750000 0.468182
vt 0.707435 0.463989
vt 0.666505 0.451574
vt 0.628785 0.431412
vt 0.595722 0.404278
vt 1.000000 1.000000
vt 1.000000 0.500000
vt 0.968750 0.500000
vt 0.968750 1.000000
vt 0.937500 0.500000
vt 0.937500 1.000000
vt 0.906250 0.500000
vt 0.906250 1.000000
vt 0.875000 0.500000
vt 0.875000 1.000000
vt 0.843750 1.000000
vt 0.843750 0.500000
vt 0.812500 1.000000
vt 0.812500 0.500000
vt 0.781250 1.000000
vt 0.781250 0.500000
vt 0.750000 1.000000
vt 0.750000 0.500000
vt 0.718750 1.000000
vt 0.718750 0.500000
vt 0.687500 0.500000
vt 0.687500 1.000000
vt 0.656250 0.500000
vt 0.656250 1.000000
vt 0.625000 1.000000
vt 0.625000 0.500000
vt 0.593750 1.000000
vt 0.593750 0.500000
vt 0.562500 1.000000
vt 0.562500 0.500000
vt 0.531250 1.000000
vt 0.531250 0.500000
vt 0.500000 1.000000
vt 0.500000 0.500000
vt 0.468750 1.000000
vt 0.468750 0.500000
vt 0.437500 0.500000
vt 0.437500 1.000000
vt 0.406250 0.500000
vt 0.406250 1.000000
vt 0.375000 1.000000
vt 0.375000 0.500000
vt 0.343750 0.500000
vt 0.343750 1.000000
vt 0.312500 0.500000
vt 0.312500 1.000000
vt 0.281250 0.500000
vt 0.281250 1.000000
vt 0.250000 0.500000
vt 0.250000 1.000000
vt 0.218750 0.500000
vt 0.218750 1.000000
vt 0.187500 0.500000
vt 0.187500 1.000000
vt 0.156250 0.500000
vt 0.156250 1.000000
vt 0.125000 0.500000
vt 0.125000 1.000000
vt 0.093750 0.500000
vt 0.093750 1.000000
vt 0.062500 0.500000
vt 0.062500 1.000000
vt 0.031250 0.500000
vt 0.031250 1.000000
vt 0.000000 0.500000
vt 0.000000 1.000000
vn 0.0980 0.0000 -0.9952
vn 0.2903 0.0000 -0.9569
vn 0.4714 0.0000 -0.8819
vn 0.6344 0.0000 -0.7730
vn 0.7730 0.0000 -0.6344
vn 0.8819 0.0000 -0.4714
vn 0.9569 0.0000 -0.2903
vn 0.9952 0.0000 -0.0980
vn 0.9952 0.0000 0.0980
vn 0.9569 0.0000 0.2903
vn 0.8819 0.0000 0.4714
vn 0.7730 0.0000 0.6344
vn 0.6344 0.0000 0.7730
vn 0.4714 0.0000 0.8819
vn 0.2903 0.0000 0.9569
vn 0.0980 0.0000 0.9952
vn -0.0980 0.0000 0.9952
vn -0.2903 0.0000 0.9569
vn -0.4714 0.0000 0.8819
vn -0.6344 0.0000 0.7730
vn -0.7730 0.0000 0.6344
vn -0.8819 0.0000 0.4714
vn -0.9569 0.0000 0.2903
vn -0.9952 0.0000 0.0980
vn -0.9952 0.0000 -0.0980
vn -0.9569 0.0000 -0.2903
vn -0.8819 0.0000 -0.4714
vn -0.7730 0.0000 -0.6344
vn -0.6344 0.0000 -0.7730
vn -0.4714 0.0000 -0.8819
vn 0.0000 1.0000 0.0000
vn -0.2903 0.0000 -0.9569
vn -0.0980 0.0000 -0.9952
vn 0.0000 -1.0000 0.0000
usemtl None
s off
f 1/1/1 3/2/1 7/3/1 5/4/1
f 5/4/2 7/3/2 11/5/2 9/6/2
f 9/6/3 11/5/3 15/7/3 13/8/3
f 13/8/4 15/7/4 19/9/4 17/10/4
f 17/10/5 19/9/5 23/11/5 21/12/5
f 21/12/6 23/11/6 27/13/6 26/14/6
f 26/14/7 27/13/7 32/15/7 30/16/7
f 30/16/8 32/15/8 36/17/8 34/18/8
f 34/18/9 36/17/9 39/19/9 38/20/9
f 38/20/10 39/19/10 44/21/10 41/22/10
f 41/22/11 44/21/11 47/23/11 45/24/11
f 45/24/12 47/23/12 52/25/12 49/26/12
f 49/26/13 52/25/13 56/27/13 54/28/13
f 54/28/14 56/27/14 60/29/14 58/30/14
f 58/30/15 60/29/15 63/31/15 61/32/15
f 61/32/16 63/31/16 67/33/16 65/34/16
f 65/34/17 67/33/17 72/35/17 69/36/17
f 69/36/18 72/35/18 76/37/18 74/38/18
f 74/38/19 76/37/19 80/39/19 78/40/19
f 78/40/20 80/39/20 84/41/20 81/42/20
f 81/42/21 84/41/21 88/43/21 85/44/21
f 85/44/22 88/43/22 91/45/22 89/46/22
f 89/46/23 91/45/23 95/47/23 93/48/23
f 93/48/24 95/47/24 99/49/24 97/50/24
f 97/50/25 99/49/25 103/51/25 102/52/25
f 102/52/26 103/51/26 108/53/26 105/54/26
f 105/54/27 108/53/27 112/55/27 109/56/27
f 109/56/28 112/55/28 116/57/28 114/58/28
f 114/58/29 116/57/29 120/59/29 117/60/29
f 117/60/30 120/59/30 124/61/30 121/62/30
f 12/63/31 11/64/31 7/65/31 3/66/31 127/67/31 124/68/31 120/69/31 116/70/31 112/71/31 108/72/31 103/73/31 99/74/31 95/75/31 91/76/31 88/77/31 84/78/31 80/79/31 76/80/31 72/81/31 67/82/31 63/83/31 60/84/31 56/85/31 52/86/31 47/87/31 44/88/31 43/89/31 48/90/31 51/91/31 55/92/31 59/93/31 64/94/31 68/95/31 71/96/31 75/97/31 79/98/31 83/99/31 87/100/31 92/101/31 96/102/31 100/103/31 104/104/31 107/105/31 111/106/31 115/107/31 119/108/31 123/109/31 128/110/31 4/111/31 8/112/31
f 43/89/31 44/88/31 39/113/31 36/114/31 32/115/31 27/116/31 23/117/31 19/118/31 15/119/31 11/64/31 12/63/31 16/120/31 20/121/31 24/122/31 28/123/31 31/124/31 35/125/31 40/126/31
f 121/62/32 124/61/32 127/127/32 126/128/32
f 126/128/33 127/127/33 3/129/33 1/130/33
f 13/131/34 17/132/34 21/133/34 26/134/34 30/135/34 34/136/34 38/137/34 41/138/34 45/139/34 49/140/34 54/141/34 58/142/34 61/143/34 65/144/34 69/145/34 74/146/34 78/147/34 81/148/34 85/149/34 89/150/34 93/151/34 97/152/34 102/153/34 105/154/34 109/155/34 110/156/34 106/157/34 101/158/34 98/159/34 94/160/34 90/161/34 86/162/34 82/163/34 77/164/34 73/165/34 70/166/34 66/167/34 62/168/34 57/169/34 53/170/34 50/171/34 46/172/34 42/173/34 37/174/34 33/175/34 29/176/34 25/177/34 22/178/34 18/179/34 14/180/34
f 109/155/34 114/181/34 117/182/34 121/183/34 126/184/34 1/185/34 5/186/34 9/187/34 13/131/34 14/180/34 10/188/34 6/189/34 2/190/34 125/191/34 122/192/34 118/193/34 113/194/34 110/156/34
f 4/195/17 2/196/17 6/197/17 8/198/17
f 8/198/18 6/197/18 10/199/18 12/200/18
f 12/200/19 10/199/19 14/201/19 16/202/19
f 16/202/20 14/201/20 18/203/20 20/204/20
f 24/205/21 20/204/21 18/203/21 22/206/21
f 28/207/22 24/205/22 22/206/22 25/208/22
f 31/209/23 28/207/23 25/208/23 29/210/23
f 35/211/24 31/209/24 29/210/24 33/212/24
f 40/213/25 35/211/25 33/212/25 37/214/25
f 37/214/26 42/215/26 43/216/26 40/213/26
f 42/215/27 46/217/27 48/218/27 43/216/27
f 51/219/28 48/218/28 46/217/28 50/220/28
f 55/221/29 51/219/29 50/220/29 53/222/29
f 59/223/30 55/221/30 53/222/30 57/224/30
f 64/225/32 59/223/32 57/224/32 62/226/32
f 68/227/33 64/225/33 62/226/33 66/228/33
f 71/229/1 68/227/1 66/228/1 70/230/1
f 71/229/2 70/230/2 73/231/2 75/232/2
f 73/231/3 77/233/3 79/234/3 75/232/3
f 83/235/4 79/234/4 77/233/4 82/236/4
f 83/235/5 82/236/5 86/237/5 87/238/5
f 87/238/6 86/237/6 90/239/6 92/240/6
f 94/241/7 96/242/7 92/240/7 90/239/7
f 98/243/8 100/244/8 96/242/8 94/241/8
f 100/244/9 98/243/9 101/245/9 104/246/9
f 104/246/10 101/245/10 106/247/10 107/248/10
f 107/248/11 106/247/11 110/249/11 111/250/11
f 111/250/12 110/249/12 113/251/12 115/252/12
f 115/252/13 113/251/13 118/253/13 119/254/13
f 119/254/14 118/253/14 122/255/14 123/256/14
f 125/257/15 128/258/15 123/256/15 122/255/15
f 2/259/16 4/260/16 128/258/16 125/257/16
